<svg version="1.2" xmlns="http://www.w3.org/2000/svg" viewBox="0 0 1760 296" width="1760" height="296">
	<title>Embraer_logo-svg</title>
	<style>
		.s0 { fill: #100690 } 
	</style>
	<path id="Layer" class="s0" d="m236.6 0.3l-177.2 135.9h-35.5l-23.6 23.6h59.1l177.2 135.9h59.1l-118.2-135.9h117.6v-23.6h-117.6l118.2-135.9z"/>
	<path id="Layer" fill-rule="evenodd" class="s0" d="m411.7 110.2v22.3h105.8v31.1h-105.8v22.6h116.2v35.8h-158.5v-147.9h158.4v36.1zm137.3 111.8v-147.9h71.1l49.7 92.4 49.7-92.4h72.3v147.9h-42.3v-105.2h-1.8l-57 105.2h-41.7l-56.7-105.3h-1.1v105.3zm264.1 0v-147.9h124.6c31 0 46 13.5 46 41.4 0 15.8-6.4 25.6-20.3 31.2 17.5 3.1 25.1 14.1 25.1 35.2 0 28.5-13.7 40.1-44.4 40.1zm127.3-102.5c0-7.3-4.4-12.2-10.9-12.2h-74.1v24.4h74.1c7.1 0 10.9-4.3 10.9-12.2zm4.6 55.3c0-7.9-4.6-13-11.7-13h-77.9v26.6h77.9c7.5 0 11.7-4.9 11.7-13.6zm239.7 47.2l79.8-147.9h56.8l78.3 147.9h-49l-14-24.6h-89l-14.2 24.6zm135.8-60.2l-28.4-52.3-27.7 52.3zm439.3-39.2c0 24.4-5.7 36.6-23.1 41 14.5 3.8 21.9 13.1 21.9 28.1v30.3h-42.2v-22.6c0-12.6-5.1-15.2-19-15.2h-76.3v37.8h-42.4v-147.9h124.4c41.8 0 56.7 10 56.7 48.5zm-138.7-11.6v36.2h80.5c11.8 0 15.2-5.5 15.2-19.5 0-11.4-4.4-16.7-15.2-16.7zm-435.3 11.6c0 24.4-5.6 36.6-23 41 14.5 3.8 21.9 13.1 21.9 28.1v30.3h-42.2v-22.6c0-12.6-5.1-15.2-19.1-15.2h-76.3v37.8h-42.4v-147.9h124.5c41.8 0 56.6 10 56.6 48.5zm-138.7-11.6v36.2h80.5c11.9 0 15.3-5.5 15.3-19.5 0-11.4-4.4-16.7-15.3-16.7zm394.7-0.8v22.3h105.8v31.1h-105.8v22.6h116.2v35.8h-158.5v-147.9h158.4v36.1z"/>
</svg>