<svg version="1.2" xmlns="http://www.w3.org/2000/svg" viewBox="0 0 1559 348" width="1559" height="348">
	<title>Banco_Bradesco_logo_(horizontal)-svg</title>
	<style>
		.s0 { fill: #cc092f } 
	</style>
	<g id="#cc092fff">
		<path id="Layer" fill-rule="evenodd" class="s0" d="m435.7 140.3c10.5-8.8 23.1-15 35.9-19.8q0 37.2 0 74.5c12.3-5.6 26.2-7 39.6-5.9 12.5 1 25.1 4.9 35 12.8 8.4 6.7 14.5 15.8 18.3 25.8 5.2 13.6 6.6 28.4 6.2 43-0.7 19.3-7.4 38.9-21.1 52.8-12.9 13.5-31 20.8-49.2 23-13.6 1.7-27.4 1-41-0.8-10-1.4-20.1-3.2-29.6-6.9q0-92.6 0-185.1c-0.1-5 2-10.1 5.9-13.4zm35.9 87.8c0 27.9 0 55.8 0 83.7 6.8 1.9 14 1.8 21 1.4 10.3-0.9 20.3-6.1 26.2-14.7 7.6-11 9.3-24.8 8.7-37.8-0.5-10.4-2.8-21.5-10.2-29.2-5.5-5.6-13.5-8.1-21.3-8.1-8.3 0.1-16.9 0.9-24.4 4.7zm482.9-93.9c8.6-5.7 18-10.1 27.7-13.8q0 108.8 0 217.6c-16.1 5.4-33 8.2-49.9 9.1-13.4 0.8-27 0.6-39.9-3.1-12.9-3.6-24.9-10.6-33.7-20.8-9.7-11.2-14.9-25.8-16.6-40.4-1.7-14.5-0.9-29.5 3.5-43.6 3.7-11.5 10-22.2 18.8-30.5 11.6-11.2 27.2-17.6 43.2-19.4 10.9-1 22.1-0.9 32.8 1.7 0-12.2 0-24.3 0-36.5-0.1-4.4 1-9 4-12.3 2.9-3.2 6.6-5.6 10.1-8zm-44.3 89.3c-8.3 2-15.6 7.5-19.5 15-5.7 10.5-6.6 22.7-6.3 34.4 0.5 11.3 3.3 23.5 11.9 31.6 5.4 5.1 12.7 7.8 20 8.6 8.1 0.8 16.3 0.2 24.1-2q0-43.3 0-86.7c-9.8-2.6-20.3-3.3-30.2-0.9zm-201.4-30.4c17-4.1 34.7-6 52.2-4.7 12.4 1 24.9 4 35.3 11 8.2 5.4 14.4 13.5 17.9 22.6 3.4 8.6 4.8 17.9 4.9 27.1q0 44.6 0 89.3c-17.2 5.2-35 8.4-53 9-13.7 0.3-27.6-0.5-40.7-4.8-9.3-3.1-18.1-8.6-23.8-16.8-5.5-7.8-7.8-17.4-8.2-26.9-0.5-9.1 1.1-18.5 6-26.3 5.9-9.7 16.2-15.9 26.8-19.3 17-5.5 35.3-5.5 52.9-3.4 0.1-5.9-0.7-12-3.9-17-2.9-4.5-7.6-7.5-12.6-9.1-7.7-2.4-15.9-2.1-23.9-1.9-10.1 0.3-20.1 2-29.9 4.2-2.3-10.8-2.7-22.2 0-33zm43.8 84.2c-5.3 0.7-10.8 1.9-15 5.2-6.7 5.2-7.4 15.4-3.5 22.5 3 5.2 9 7.6 14.7 8.7 10 1.9 20.3 1 30.2-0.5q0.1-17.7 0-35.3c-8.8-0.7-17.6-1.5-26.4-0.6zm285.7-78.8c11.8-7.4 25.9-10.5 39.8-10.4 12.8-0.1 25.9 2.7 36.8 9.6 9 5.7 16.1 14 20.6 23.5 6 12.5 7.9 26.5 7.7 40.2-0.2 6.3-0.2 12.7-1.6 18.8q-47.4 0-94.9 0c1.1 7.6 3.6 15.3 8.8 21.1 6.3 7.4 16 10.7 25.4 11.7 17.5 1.7 34.9-1.9 51.6-6.6 2.3 10.6 2.3 21.7 0 32.4-11.2 5.1-23.5 7.2-35.6 8.2-16.3 1.3-33 0.2-48.3-5.8-11.9-4.6-22.6-12.7-29.8-23.4-8.8-12.9-12.5-28.7-13.1-44.2-0.5-15.9 1.5-32.3 8.1-46.9 5.2-11.5 13.7-21.6 24.5-28.2zm17.9 30.2c-5.4 5.7-8.2 13.3-9.5 20.8q28.9 0.1 57.8 0c-0.4-6.7-1.6-13.5-5.4-19.2-2.9-4.5-7.6-7.7-12.7-9.1-10.4-2.8-22.6-0.6-30.2 7.5zm121-26.4c10.6-9.3 24.9-13.4 38.8-14.1 9.7-0.4 19.4 0.3 28.9 1.8 7.2 1.2 14.5 2.8 21 6.1 2.1 10.4 1.9 21.1 0 31.4-14.5-4.6-29.7-7.2-44.9-6.2-3.8 0.3-7.7 1-10.8 3.2-3.5 2.5-4.6 7.4-3.3 11.4 1.4 3.6 4.9 5.8 8.2 7.6 11.9 5.8 24.8 9.7 36.3 16.4 6 3.6 11.6 8.2 15.4 14.2 4.3 6.7 6.1 14.7 6.4 22.6 0.7 10.1-1.5 20.6-7.4 28.9-6.7 9.7-17.5 16-28.7 19.1-10.9 3.1-22.3 3.1-33.4 2.4-13.8-0.8-28-2.9-40.4-9.3-2.7-10.7-2.8-22.1 0-32.8 13.7 4.9 27.9 8.8 42.6 9.1 6.8 0 14.2 0.1 20.1-3.7 5.4-3.5 6.4-11.2 3.9-16.7-2.3-4.3-7.1-6.3-11.3-8.2-12.4-5.5-25.6-9.6-36.9-17.3-5.7-3.8-10.8-8.8-13.8-15-3.7-7.5-4.6-16.1-4.2-24.3 0.6-10.3 5.8-19.9 13.5-26.6zm155.4-8.4c14.6-6.3 30.9-6.7 46.5-5 10.8 1.2 21.4 4.6 31 9.6-6.7 8.7-11.7 18.8-14.8 29.3-7.9-3.2-16.2-5.3-24.8-5.3-7.5-0.3-15.4 1.2-21.6 5.7-8.9 6.3-12.9 17.3-14.3 27.8-1.5 11.7-1.1 24 3.1 35.2 3 8 8.7 15.3 16.6 18.9 6.8 3.4 14.6 3.2 22 2.8 6.5-0.4 12.7-2.5 18.6-4.9 3.4 10.7 9.1 20.5 15.9 29.4-13.6 7.4-29.3 9.9-44.6 10.1-14.2 0.1-28.7-2.5-41.1-9.7-10.9-6.1-19.6-15.7-25.2-26.8-7-14-9.4-29.8-9.2-45.3 0.3-15.7 3.5-31.6 11.6-45.2 6.9-11.8 17.6-21.4 30.3-26.6zm138.7-4.9c11.2-1.5 22.6-1.3 33.6 1.2 12 2.6 23.5 8.4 32.1 17.3 13.1 13 19.3 31.4 20.9 49.5 1.1 13.9 0.3 28.1-3.7 41.6-3.3 11.2-9.1 21.8-17.5 30-9.6 9.5-22.4 15.3-35.6 17.5-11.5 2-23.4 1.9-34.8-0.6-12.1-2.5-23.6-8.2-32.4-16.9-8.4-8.1-14.2-18.7-17.6-29.8-4.1-13.5-5-27.8-3.8-41.8 1.4-15.5 6.1-31 15.6-43.5 10.3-13.7 26.4-22.2 43.2-24.5zm8.7 33.1c-4.8 0.7-9.4 2.6-13 5.8-4.7 4.1-7.6 10-9.3 16-2.7 9.4-3.1 19.3-2.8 29 0.3 7.7 1.1 15.6 3.9 22.9 1.9 5.2 5.1 10.2 9.8 13.4 4.4 3.1 10 4.4 15.4 4.6 6.1 0.1 12.4-1 17.6-4.5 4.8-3.2 8.1-8.3 10.1-13.7 3-8.2 3.7-16.9 3.9-25.6 0-9.5-0.5-19.2-3.4-28.4-2-6.1-5.6-12-11-15.6-6.2-4-14-4.8-21.2-3.9zm-883.8-30.4c5.5-1.2 11.2-1.5 16.9-1.6 5.7 0 11.5 0.1 17.1 1.6 2.2 6.4 3.8 13 4.8 19.8 5.6-7.3 12.5-14 21.1-17.6 10.2-4.3 21.8-4.7 32.7-2.5 1.9 11.1 1.7 22.6-0.7 33.7-9.9-0.9-20.5-1.8-29.6 2.9-9.4 4.6-15.6 13.9-18.2 23.8-2.9 9.9-2.3 20.3-2.3 30.5q0 30.9 0 61.8c-8.7 1.6-17.6 1.8-26.4 1.6-5.2-0.1-10.4-0.4-15.4-1.6q0-76.2 0-152.4z"/>
		<path id="Layer" class="s0" d="m162.5 2c24.3-4.1 49.7-1.9 72.9 6.7 23.3 8.6 44 23.5 60.1 42.4 1.5 1.8 2.9 4.2 1.9 6.6-1.2 2.7-4.4 5-7.4 3.9-3.4-1.4-5.8-4.3-8.9-6.3-26.6-19.1-60.9-27.6-93.4-22.9-32.1 4.5-62.3 21.8-82.2 47.4 41.7-7.1 84.4-7.8 126.2-1.4 23.4 3.5 46.6 9.3 68.4 18.6 13.3 5.7 26.1 12.8 37.3 21.9 9.2 7.6 17.3 16.7 22.2 27.7 4.4 9.9 5.5 21.3 2.9 31.9-2.7 11.5-9.4 21.6-17.3 30.1-14.1 14.9-32 25.6-50.3 34.3-11.2 5.2-22.7 9.6-34.3 13.5-2.2 0.7-4.7 1.2-6.9 0.2-3.3-1.3-4.4-6.4-1.6-8.8 2.7-2.6 6.4-3.8 9.8-5.4 13.8-6.5 27.2-14.2 38.8-24.1 7.8-6.8 15-14.8 18.6-24.6 3.2-8.9 1.6-19-2.9-27.1-5.6-10.1-14.6-17.9-24.1-24.2-18.9-12.2-40.4-19.7-62.1-25.2-46.1-11.3-94.1-13.4-141.4-9.3-15.1 34.1-12.5 75 5.6 107.5 6.2 11.3 14.3 21.6 23.9 30.2 1.6 1.4 3.2 3.3 2.9 5.6-0.3 2.9-2.7 5.8-5.7 5.8-2.7 0.1-5-1.6-7.2-3-25.1-16.4-44.5-41.1-54.7-69.3-8.2-22.5-10.6-47.2-6-70.7-12.4 2.6-24.8 5.5-37.1 9.1-1.7 0.4-3.6 1-5.4 0.5-3.5-0.7-5.6-5.2-3.8-8.3 1.3-2.1 3.6-3.2 5.6-4.4 14.8-8 30.6-14.2 46.6-19.2 8.6-23.2 23.6-44 42.8-59.7 19-15.5 42-25.9 66.2-30zm51 222.3c1.9-1.1 4.4-1.4 6.2 0 1.4 1 1.7 2.9 1.7 4.6 0 37 0 74 0 111 0.2 3.1-2.3 6-5.4 5.8-10.3 0.1-20.5 0-30.8 0q0-52.5 0-105.1c9.5-5.4 18.9-10.9 28.3-16.3zm-59.5 34.3c7.2-4.2 14.4-8.4 21.6-12.5q0 49.8 0 99.6c-7.2 0-14.5 0.1-21.8 0-2.2 0.1-3.6-2.2-3.3-4.2q0-38.3 0-76.6c-0.2-2.5 1.1-5.1 3.5-6.3z"/>
	</g>
</svg>