<svg version="1.2" baseProfile="tiny-ps" xmlns="http://www.w3.org/2000/svg" viewBox="0 0 1668 389" width="1668" height="389">
	<title>Latam-logo_-v_(Indigo)-svg</title>
	<style>
		tspan { white-space:pre }
		.shp0 { fill: #2a0088 } 
		.shp1 { fill: #ed1651 } 
	</style>
	<g id="layer5">
		<g id="Layer">
			<path id="path27116" fill-rule="evenodd" class="shp0" d="M1334.94 291.24L1385.11 97.18L1440.57 97.18C1440.57 97.18 1454.64 95.83 1461.88 101.57C1469.11 107.3 1471.16 116.17 1471.16 116.17L1501.3 210.08L1540.63 97.19L1594.3 97.19C1594.3 97.19 1607.65 97.19 1614.57 102.61C1621.49 108.04 1623.57 116.17 1623.57 116.17L1667.57 291.24L1615.45 291.24L1576.14 142.02L1534.88 255.78L1479.63 255.78C1479.63 255.78 1472.98 256.43 1466.61 252.12C1460.25 247.82 1460.05 243.88 1460.05 243.88L1426.42 142.03L1387.83 291.25L1334.94 291.24Z" />
			<path id="path27065" fill-rule="evenodd" class="shp0" d="M818.15 97.16L818.15 135.87L911.23 142.13L911.23 291.22L964.99 291.22L964.99 142.13L1058.08 135.87L1058.08 97.16L818.15 97.16Z" />
			<path id="path27022" fill-rule="evenodd" class="shp0" d="M663.45 97.16L716.05 97.16C716.05 97.16 721.53 97.24 726.75 100.22C731.96 103.21 734.96 109.88 734.96 109.88L826.94 291.22L767.68 291.22L751.13 255.53L643.04 255.53L626.1 291.22L566.51 291.22L663.45 97.16L663.45 97.16ZM696.37 139.06L660.19 216.1L732 216.1L696.37 139.06L696.37 139.06Z" />
			<path id="path26992" fill-rule="evenodd" class="shp0" d="M361.77 97.16L361.77 291.22L525.44 291.22L547.75 246.56L417.86 246.56L417.86 97.16L361.77 97.16Z" />
			<path id="path27070" fill-rule="evenodd" class="shp0" d="M1146.92 97.16L1199.52 97.16C1199.52 97.16 1205 97.24 1210.21 100.22C1215.43 103.21 1218.43 109.88 1218.43 109.88L1310.41 291.22L1251.14 291.22L1234.6 255.53L1126.5 255.53L1109.57 291.22L1049.97 291.22L1146.92 97.16L1146.92 97.16ZM1179.84 139.06L1143.65 216.1L1215.46 216.1L1179.84 139.06L1179.84 139.06Z" />
		</g>
		<g id="Layer">
			<path id="path27278" fill-rule="evenodd" class="shp1" d="M28.6 159.52L71.62 147.22C71.62 147.22 71.16 144.34 69.62 142.93C68.07 141.52 65.3 140.65 65.3 140.65L5.5 118.91C5.5 118.91 3.6 118.27 2.22 119.04C0.83 119.81 0.88 121.81 0.88 121.81L0.88 149.64C0.88 149.64 0.73 152.3 4.59 158.27C8.44 164.25 17.58 162.73 17.58 162.73L28.6 159.52Z" />
			<path id="path27260" fill-rule="evenodd" class="shp1" d="M199.87 92.37L239.89 69.93C239.89 69.93 240.49 66.05 238.95 64.64C237.41 63.23 235.57 62.79 235.57 62.79L62.73 1.06C62.73 1.06 60.83 0.42 59.44 1.19C58.06 1.96 58.11 3.96 58.11 3.96L58.11 27.95C58.11 27.95 58.08 33.51 61.94 39.49C65.79 45.46 72.05 47.01 72.05 47.01L199.87 92.37Z" />
			<path id="path27258" fill-rule="evenodd" class="shp1" d="M199.87 162.22L239.89 141.47C239.89 141.47 240.74 136.21 239.2 134.8C237.66 133.39 235.57 132.64 235.57 132.64L5.5 49C5.5 49 3.6 48.36 2.21 49.13C0.83 49.9 0.88 51.9 0.88 51.9L0.88 75.9C0.88 75.9 0.85 81.46 4.71 87.43C8.56 93.4 14.82 94.95 14.82 94.95L199.87 162.22Z" />
		</g>
		<g id="Layer">
			<path id="path27194" fill-rule="evenodd" class="shp0" d="M235.57 62.79C235.57 62.79 237.91 63.15 239.89 65.08C241.87 67.01 241.89 69.36 241.89 69.36L241.89 101.14C241.89 101.14 241.8 105.48 240.02 109.38C238.24 113.28 235.63 114.21 235.63 114.21L230.21 116.18L57.48 178.97C57.48 178.97 56.65 179.23 55.57 179.23C54.49 179.23 53.66 178.97 53.66 178.97L5.54 161.47C5.54 161.47 4.34 161.2 2.65 158.54C0.74 155.56 0.88 149.65 0.88 149.65C0.88 149.65 1.18 152.68 2.89 154.12C4.6 155.56 9.17 153.98 9.17 153.98L230.21 73.62C230.21 73.62 238.99 70.04 238.99 66.4C238.99 63.88 235.57 62.8 235.57 62.8L235.57 62.79Z" />
			<path id="path27140" fill-rule="evenodd" class="shp0" d="M235.57 132.64C235.57 132.64 237.91 132.99 239.89 134.92C241.87 136.85 241.89 139.21 241.89 139.21L241.89 170.98C241.89 170.98 241.8 175.32 240.02 179.23C238.24 183.13 235.63 184.05 235.63 184.05L230.21 186.03L57.48 248.82L57.48 206.25L230.21 143.46C230.21 143.46 238.99 139.87 238.99 136.23C238.99 133.72 235.57 132.64 235.57 132.64L235.57 132.64Z" />
			<path id="path27142" fill-rule="evenodd" class="shp0" d="M149.83 244.47C151.48 246.12 151.48 249.76 151.48 249.76L151.48 273.52C151.48 273.52 151.38 277.86 149.6 281.76C147.83 285.67 145.22 286.59 145.22 286.59L139.8 288.56L57.48 318.49L57.48 275.92L139.8 246C139.8 246 148.17 242.81 149.83 244.47L149.83 244.47Z" />
			<path id="path27168" fill-rule="evenodd" class="shp0" d="M96.72 333.31C98.38 334.96 98.38 338.6 98.38 338.6L98.38 362.36C98.38 362.36 98.28 366.7 96.5 370.61C94.72 374.51 92.12 375.43 92.12 375.43L86.7 377.4L57.48 388.55L57.48 345.98L86.7 334.84C86.7 334.84 95.07 331.65 96.72 333.31L96.72 333.31Z" />
		</g>
	</g>
</svg>